<svg width="298" height="165" viewBox="0 0 298 165" fill="none" xmlns="http://www.w3.org/2000/svg">
<path d="M265.204 48.7934C258.241 38.3887 248.067 30.5275 236.166 26.3575C224.266 22.1875 211.263 21.9271 199.056 25.6142C186.849 29.3013 176.076 36.743 168.311 46.8526M166.637 116.883C173.916 127.069 184.33 134.618 196.358 138.428C208.386 142.238 221.399 142.109 233.495 138.061C245.592 134.012 256.14 126.256 263.598 115.924L263.914 82.1327L231.187 82.4364" stroke="#22306D" stroke-width="20" stroke-linecap="round" stroke-linejoin="round"/>
<path d="M48.5352 67.1113C48.5352 68.3873 48.0794 69.4583 47.168 70.3242C46.3021 71.2356 45.2311 71.6913 43.9551 71.6913H16.6113C15.7454 71.7369 15.0163 71.942 14.4238 72.3066C13.877 72.6256 13.4668 73.013 13.1934 73.4687C12.9199 73.8788 12.7832 74.3118 12.7832 74.7675C12.7832 75.2232 12.9199 75.679 13.1934 76.1347C13.4668 76.5449 13.877 76.9322 14.4238 77.2968C15.0163 77.6158 15.7454 77.7981 16.6113 77.8437H36.0254C39.2155 77.9348 41.8359 78.6868 43.8867 80.0995C45.9831 81.4667 47.4642 83.0618 48.3301 84.8847C49.2415 86.662 49.6973 88.485 49.6973 90.3535C49.6973 92.1764 49.2415 93.9993 48.3301 95.8222C47.4186 97.5995 45.9375 99.1946 43.8867 100.607C41.8359 101.975 39.2155 102.658 36.0254 102.658H35.6152C35.3418 102.704 35.0684 102.727 34.7949 102.727H8.95508C7.67904 102.727 6.58529 102.294 5.67383 101.428C4.80794 100.516 4.375 99.4225 4.375 98.1464C4.375 96.8704 4.83073 95.7994 5.74219 94.9335C6.60807 94.0221 7.67904 93.5663 8.95508 93.5663H36.4355C37.3014 93.6119 38.0078 93.4524 38.5547 93.0878C39.1471 92.7232 39.5801 92.3131 39.8535 91.8574C40.127 91.3561 40.2637 90.8548 40.2637 90.3535C40.2637 90.0344 40.127 89.6015 39.8535 89.0546C39.5801 88.4622 39.1471 87.9837 38.5547 87.6191C38.0078 87.2545 37.3014 87.0494 36.4355 87.0038H17.0215C13.8314 86.9127 11.1882 86.1835 9.0918 84.8163C7.04102 83.4492 5.5599 81.8997 4.64844 80.1679C3.78255 78.3906 3.34961 76.5904 3.34961 74.7675C3.34961 72.9902 3.80534 71.2356 4.7168 69.5038C5.62826 67.7265 7.10938 66.1542 9.16016 64.787C11.2109 63.4199 13.8314 62.6907 17.0215 62.5995H17.4316C17.7051 62.554 17.9785 62.5312 18.252 62.5312H43.9551C45.2311 62.5312 46.3021 62.9869 47.168 63.8984C48.0794 64.7643 48.5352 65.8352 48.5352 67.1113ZM95.5664 99.2402V82.7656C95.5664 81.6262 94.974 81.0338 93.7891 80.9882H69.8633C68.9974 81.0338 68.2454 81.4212 67.6074 82.1503C66.9694 82.8339 66.4909 83.6542 66.1719 84.6113C65.8984 85.5227 65.7617 86.457 65.7617 87.414C65.7617 88.3255 65.8984 89.2597 66.1719 90.2167C66.4909 91.1282 66.9694 91.9485 67.6074 92.6777C68.2454 93.3613 68.9974 93.7031 69.8633 93.7031H87.3633C88.6393 93.7031 89.7103 94.1588 90.5762 95.0703C91.4876 95.9361 91.9434 97.0071 91.9434 98.2831C91.9434 99.5592 91.4876 100.63 90.5762 101.496C89.7103 102.407 88.6393 102.863 87.3633 102.863H70.1367C66.9466 102.818 64.3034 101.929 62.207 100.197C60.1562 98.4199 58.6751 96.4374 57.7637 94.2499C56.8978 92.0169 56.4648 89.7154 56.4648 87.3456C56.4648 85.067 56.9206 82.8339 57.832 80.6464C58.7435 78.4134 60.2246 76.4309 62.2754 74.6992C64.3262 72.9218 67.3568 71.9648 71.3672 71.8281H100.078C101.354 71.8281 102.448 72.261 103.359 73.1269C104.271 73.9472 104.749 74.9954 104.795 76.2714V99.2402C104.795 100.516 104.316 101.587 103.359 102.453C102.448 103.273 101.354 103.684 100.078 103.684C97.3438 103.456 95.8398 101.975 95.5664 99.2402ZM129.268 103.684C128.037 103.638 126.989 103.205 126.123 102.385C125.257 101.519 124.801 100.471 124.756 99.2402V90.0117H116.895C115.618 90.0117 114.525 89.5787 113.613 88.7128C112.747 87.8014 112.314 86.7076 112.314 85.4316C112.314 84.1555 112.77 83.0846 113.682 82.2187C114.548 81.3072 115.618 80.8515 116.895 80.8515H124.756C124.893 78.1627 125.348 75.565 126.123 73.0585C127.035 70.1874 128.516 67.7721 130.566 65.8124C132.663 63.8072 135.306 62.7135 138.496 62.5312H157.5C158.73 62.5768 159.756 63.0325 160.576 63.8984C161.442 64.7187 161.898 65.7441 161.943 66.9745C161.943 68.2506 161.51 69.3443 160.645 70.2558C159.824 71.1673 158.776 71.6458 157.5 71.6913H140.82C139.089 71.7825 137.653 72.4433 136.514 73.6738C135.374 74.9042 134.668 76.2942 134.395 77.8437C134.167 78.8463 134.03 79.8489 133.984 80.8515H157.227C158.503 80.8515 159.574 81.3072 160.439 82.2187C161.351 83.0846 161.807 84.1555 161.807 85.4316C161.807 86.7076 161.374 87.8014 160.508 88.7128C159.596 89.5787 158.503 90.0117 157.227 90.0117H133.984V99.2402C133.939 100.516 133.46 101.587 132.549 102.453C131.637 103.273 130.544 103.684 129.268 103.684ZM183.066 102.863C179.056 102.727 176.025 101.792 173.975 100.06C171.924 98.2831 170.443 96.3007 169.531 94.1132C168.62 91.8801 168.164 89.6243 168.164 87.3456C168.164 84.9759 168.597 82.6972 169.463 80.5097C170.374 78.2766 171.855 76.2942 173.906 74.5624C176.003 72.7851 178.646 71.8736 181.836 71.8281H207.812C209.089 71.8281 210.16 72.261 211.025 73.1269C211.937 73.9472 212.393 74.9498 212.393 76.1347C212.393 77.3652 211.937 78.4134 211.025 79.2792C210.16 80.0995 209.089 80.5097 207.812 80.5097H182.246C181.243 80.5097 180.355 80.8515 179.58 81.5351C178.851 82.2187 178.304 83.1074 177.939 84.2011C177.62 85.2949 177.461 86.3658 177.461 87.414C177.461 88.5533 177.62 89.6699 177.939 90.7636C178.304 91.8574 178.851 92.746 179.58 93.4296C180.355 94.0676 181.243 94.4094 182.246 94.455H207.812C209.089 94.455 210.16 94.8652 211.025 95.6855C211.937 96.5058 212.393 97.4856 212.393 98.6249C212.393 99.8098 211.937 100.812 211.025 101.633C210.16 102.453 209.089 102.863 207.812 102.863H183.066ZM211.572 87.2089C211.572 88.0748 211.185 88.8268 210.41 89.4648C209.727 90.0572 208.861 90.3535 207.812 90.3535H185.459C184.411 90.3535 183.522 90.0572 182.793 89.4648C182.064 88.8268 181.699 88.0748 181.699 87.2089C181.699 86.3886 182.064 85.6594 182.793 85.0214C183.522 84.429 184.411 84.1328 185.459 84.1328H207.812C208.861 84.1328 209.749 84.4518 210.479 85.0898C211.208 85.6822 211.572 86.3886 211.572 87.2089Z" fill="#1DBEE9"/>
</svg>
